<svg xmlns="http://www.w3.org/2000/svg" version="1.1" xmlns:xlink="http://www.w3.org/1999/xlink" xmlns:svgjs="http://svgjs.dev/svgjs" width="1440" height="560" preserveAspectRatio="none" viewBox="0 0 1440 560">
    <g mask="url(&quot;#SvgjsMask1068&quot;)" fill="none">
        <rect width="1440" height="560" x="0" y="0" fill="rgba(14, 42, 71, 0.12)"></rect>
        <path d="M0,431.86C89.769,435.132,197.265,470.49,263.068,409.341C330.711,346.482,276.334,227.644,311.598,142.302C344.799,61.953,462.957,20.802,459.51,-66.068C456.124,-151.392,364.06,-205.014,295.782,-256.296C237.913,-299.76,169.258,-319.848,98.922,-336.897C31.715,-353.187,-36.763,-370.54,-103.687,-353.125C-171.728,-335.419,-227.252,-289.803,-276.158,-239.293C-327.317,-186.455,-371.127,-127.009,-391.142,-56.238C-413.046,21.213,-418.908,103.509,-394.826,180.311C-368.893,263.015,-324.127,344.032,-251.027,390.605C-178.032,437.111,-86.494,428.708,0,431.86" fill="rgba(9, 27, 46, 0.12)"></path>
        <path d="M1440 921.163C1527.726 936.288 1617.538 999.29 1698.426 962.1179999999999 1778.8980000000001 925.1379999999999 1796.6 820.21 1834.183 740.018 1872.159 658.989 1932.79 579.55 1919.175 491.105 1905.585 402.825 1826.449 343.034 1763.341 279.824 1704.341 220.72899999999998 1644.872 158.656 1564.53 135.88799999999998 1484.556 113.22399999999999 1397.364 121.80399999999997 1320.9180000000001 154.44400000000002 1249.027 185.139 1211.833 259.783 1153.22 311.504 1083.004 373.46299999999997 970.53 399.13800000000003 942.3969999999999 488.456 914.225 577.899 957.886 679.3050000000001 1013.617 754.723 1064.912 824.139 1152.728 850.508 1233.131 881.894 1299.865 907.944 1369.404 908.991 1440 921.163" fill="rgba(19, 57, 96, 0.12)"></path>
    </g>
    <defs>
        <mask id="SvgjsMask1068">
            <rect width="1440" height="560" fill="#ffffff"></rect>
        </mask>
    </defs>
</svg>