<svg xmlns="http://www.w3.org/2000/svg" version="1.1" xmlns:xlink="http://www.w3.org/1999/xlink" xmlns:svgjs="http://svgjs.dev/svgjs" width="1440" height="560" preserveAspectRatio="none" viewBox="0 0 1440 560">
    <g mask="url(&quot;#SvgjsMask1101&quot;)" fill="none">
        <rect width="1440" height="560" x="0" y="0" fill="rgba(212, 175, 55, 1)"></rect>
        <path d="M0,405.032C74.536,406.686,129.096,338.402,188.673,293.581C243.844,252.074,296.816,210.507,335.011,152.994C378.641,87.298,426.643,17.841,424.144,-60.983C421.551,-142.777,383.448,-225.158,321.332,-278.436C261.959,-329.36,177.196,-329.203,99.633,-339.318C32.991,-348.008,-36.884,-361.469,-97.805,-333.093C-155.691,-306.131,-183.001,-242.654,-219.855,-190.505C-252.969,-143.649,-278.939,-95.816,-302.474,-43.489C-335.123,29.103,-411.627,100.766,-384.519,175.604C-357.969,248.9,-250.312,245.381,-183.367,285.325C-119.387,323.499,-74.485,403.379,0,405.032" fill="#8f741f"></path>
        <path d="M1440 1171.016C1558.372 1169.161 1692.317 1167.123 1777.02 1084.413 1860.172 1003.2180000000001 1822.186 862.2080000000001 1866.344 754.705 1907.981 653.337 2017.915 584.789 2027.098 475.58799999999997 2036.993 357.909 2010.8980000000001 218.51799999999997 1917.51 146.235 1823.476 73.452 1687.647 127.48700000000002 1568.916 120.95100000000002 1480.462 116.082 1396.088 98.392 1308.666 112.71800000000002 1211.123 128.702 1116.455 153.438 1034.397 208.543 932.892 276.707 803.1 344.928 783.223 465.57 763.378 586.02 884.442 679.586 938.777 788.9010000000001 990.9069999999999 893.781 1002.981 1024.077 1096.122 1095.085 1191.405 1167.725 1320.201 1172.894 1440 1171.016" fill="#e5ce84"></path>
    </g>
    <defs>
        <mask id="SvgjsMask1101">
            <rect width="1440" height="560" fill="#ffffff"></rect>
        </mask>
    </defs>
</svg>